<svg xmlns="http://www.w3.org/2000/svg" viewBox="0 0 1024 1024" role="img" aria-label="HandoBar Sisyphus icon">
  <defs>
    <linearGradient id="boulder" x1="448" y1="128" x2="864" y2="544" gradientUnits="userSpaceOnUse">
      <stop offset="0" stop-color="#fbbf24"/>
      <stop offset="1" stop-color="#f97316"/>
    </linearGradient>
  </defs>
  <rect x="88" y="88" width="848" height="848" rx="212" fill="#111827"/>
  <circle cx="662.4" cy="339.2" r="230.4" fill="url(#boulder)"/>
  <path fill="#fff7ed" d="M361.6 451.2c44.8-41.6 108.8-32 166.4 32l108.8 118.4c28.8 32 25.6 76.8-6.4 102.4-28.8 25.6-73.6 22.4-102.4-6.4L419.2 585.6l-92.8 166.4h-112l121.6-249.6c6.4-19.2 12.8-35.2 25.6-51.2Z"/>
  <path fill="#fff7ed" d="M473.6 457.6c57.6-83.2 131.2-128 240-153.6l28.8 96c-86.4 22.4-137.6 54.4-179.2 115.2l-60.8 89.6-86.4-57.6 57.6-89.6Z"/>
  <circle cx="348.8" cy="332.8" r="73.6" fill="#fff7ed"/>
</svg>
